<svg width="50" height="50" viewBox="0 0 50 50" fill="none" xmlns="http://www.w3.org/2000/svg">
<path d="M3.73925 32.1533C1.53088 28.2776 10.9885 22.0029 12.1605 21.8238C16.7039 21.8419 24.3991 29.8552 22.1914 31.1906C18.6647 35.7178 15.326 30.4979 12.2915 30.8167C10.5295 31.0019 5.94762 36.029 3.73925 32.1533Z" fill="black"/>
<path d="M27.7392 32.1533C25.5309 28.2776 34.9885 22.0029 36.1605 21.8238C40.7039 21.8419 48.3991 29.8552 46.1914 31.1906C42.6647 35.7178 39.326 30.4979 36.2915 30.8167C34.5295 31.0019 29.9476 36.029 27.7392 32.1533Z" fill="black"/>
<path d="M5.40099 19.7242C5.7764 20.6764 6.19978 25.3857 4.89984 23.906C3.87224 24.3112 2.05514 22.1435 1.67974 21.1912C1.30433 20.239 1.83303 19.1387 2.86063 18.7335C3.88822 18.3284 5.02558 18.7719 5.40099 19.7242Z" fill="black"/>
<path d="M10.401 15.7242C10.7764 16.6764 11.1998 21.3857 9.89984 19.906C8.87224 20.3112 7.05514 18.1435 6.67974 17.1912C6.30433 16.239 6.83303 15.1387 7.86063 14.7335C8.88822 14.3284 10.0256 14.7719 10.401 15.7242Z" fill="black"/>
<path d="M19.3203 17.2928C18.9128 18.2317 15.8834 21.8621 16.0098 19.8966C14.9966 19.4568 15.2435 16.639 15.6511 15.7001C16.0586 14.7611 17.2104 14.3565 18.2237 14.7963C19.2369 15.2362 19.7279 16.3538 19.3203 17.2928Z" fill="black"/>
<path d="M23.6752 21.0515C23.2343 21.9752 20.3173 25.6096 20.6341 23.7072C19.8363 23.3265 20.3452 20.5963 20.7861 19.6726C21.2269 18.7488 22.2311 18.3087 23.0289 18.6894C23.8267 19.0702 24.116 20.1277 23.6752 21.0515Z" fill="black"/>
<path d="M43.2101 16.6555C42.9312 17.6403 40.6683 21.7143 40.66 19.7857C39.8094 19.5448 39.851 16.768 40.1299 15.7832C40.4089 14.7984 41.3245 14.1953 42.175 14.4362C43.0256 14.6771 43.489 15.6707 43.2101 16.6555Z" fill="black"/>
<path d="M47.6752 21.0515C47.2343 21.9752 44.3173 25.6096 44.6341 23.7072C43.8363 23.3265 44.3452 20.5963 44.7861 19.6726C45.2269 18.7488 46.2311 18.3087 47.0289 18.6894C47.8267 19.0702 48.116 20.1277 47.6752 21.0515Z" fill="black"/>
<path d="M29.6991 17.6033C30.2125 18.4887 31.5651 22.9483 30.1738 21.6127C29.4091 22.0562 27.4432 20.0946 26.9297 19.2092C26.4162 18.3237 26.6199 17.2464 27.3847 16.803C28.1494 16.3595 29.1856 16.7178 29.6991 17.6033Z" fill="black"/>
<path d="M36.4782 14.8242C36.6589 15.8317 36.4094 20.4852 35.557 18.7552C34.6869 18.9113 33.5079 16.3968 33.3272 15.3893C33.1465 14.3819 33.7054 13.4386 34.5755 13.2826C35.4456 13.1265 36.2975 13.8167 36.4782 14.8242Z" fill="black"/>
</svg>
